<?xml version="1.0" encoding="utf-8"?>
<!-- Generator: Adobe Illustrator 25.4.1, SVG Export Plug-In . SVG Version: 6.00 Build 0)  -->
<svg version="1.1" id="Capa_1" xmlns="http://www.w3.org/2000/svg" xmlns:xlink="http://www.w3.org/1999/xlink" x="0px" y="0px"
	 viewBox="0 0 841.9 595.3" style="enable-background:new 0 0 841.9 595.3;" xml:space="preserve">
<style type="text/css">
	.st0{display:none;}
	.st1{display:inline;fill:#E0115F;}
	.st2{display:inline;fill:none;}
	.st3{display:inline;}
	.st4{font-family:'MUSASHIRegular';}
	.st5{font-size:100px;}
	.st6{font-family:'hHachimaki';}
	.st7{font-size:204.5378px;}
	.st8{fill:#E0115F;}
	.st9{fill:none;}
	.st10{enable-background:new    ;}
	.st11{fill:#EFEFEF;}
</style>
<g class="st0">
	<path class="st1" d="M265,258.5H70.7c-6.6,0-12-5.4-12-12V52.2c0-6.6,5.4-12,12-12H265c6.6,0,12,5.4,12,12v194.2
		C277,253.1,271.6,258.5,265,258.5z"/>
	<rect x="76.8" y="76.7" class="st2" width="149.7" height="72.6"/>
	<text transform="matrix(1 0 0 1 76.8287 146.1252)" class="st3 st4 st5">AI</text>
	<rect x="68.4" y="156" class="st2" width="119.6" height="74.1"/>
	<text transform="matrix(1 0 0 1 68.3968 225.3623)" class="st3 st4 st5">KO</text>
	<text transform="matrix(0.6563 0 0 1 199.248 224.5456)" class="st3 st6 st7">S</text>
	<text transform="matrix(1 0 0 1 176.0921 135.4873)" class="st3 st4 st5">’</text>
</g>
<path class="st8" d="M639.7,269.8H445.5c-6.6,0-12-5.4-12-12V63.5c0-6.6,5.4-12,12-12h194.2c6.6,0,12,5.4,12,12v194.2
	C651.7,264.4,646.3,269.8,639.7,269.8z"/>
<rect x="451.6" y="88" class="st9" width="149.7" height="72.6"/>
<g class="st10">
	<path class="st11" d="M503.4,103.5c0.1,2.6,0.3,6.8,0.6,12.5c0.3,5.7,0.6,10.9,1,15.4c0.3,4.5,0.4,9.1,0.4,13.8
		c0,4.6-0.3,7.9-0.8,9.8c-0.8,0.3-2.3,0.7-4.5,1c-2.2,0.3-4.4,0.4-6.7,0.1c-2.3-0.3-3.5-1-3.8-2.3c-0.4-0.4-0.5-4.6-0.2-12.6
		c0.2-8,0.3-13,0.2-15.1c-1.8-0.3-4.1-0.5-6.8-0.7c-2.8-0.1-5-0.3-6.9-0.5c-2.1,17.1-6.4,28.2-12.8,33.3c-1.3-0.3-3.7-1.6-7-4
		c-3.4-2.4-4.8-4.3-4.5-5.6c2.3-3.3,4.2-6.9,5.8-10.8c1.6-3.8,2.7-7.9,3.5-12.2c0.8-4.3,1.3-8.3,1.6-11.8c0.3-3.5,0.5-7.7,0.8-12.5
		c-3.5-0.3-5.5-0.5-5.8-0.7c-0.9-0.7-1.3-2.4-1.2-5.3c0-2.9,0.5-4.8,1.4-5.9c1.9-0.8,4.9-1.3,9.1-1.6c4.2-0.3,8.3-0.4,12.2-0.2
		c3.9,0.1,7.7,0,11.3-0.2c0.7-1.2,2.6-1.8,5.5-1.8c2.9,0,4.8,0.7,5.7,2c2,0.2,3.1,0.5,3.2,1c0.2,0.8,0.4,2.2,0.5,4.4
		c0.2,2.1,0.1,4.3-0.1,6.5C504.7,101.9,504.2,103.2,503.4,103.5z M482.4,110.7c0.4,0,1.4,0,3.1-0.1c1.6-0.1,2.9-0.1,3.9-0.2
		c0-2.6,0-5.1,0.1-7.6c-1.6-0.2-3.1-0.3-4.4-0.4c-1.3,0-2.8-0.1-4.5-0.1c-1.7,0-3.4-0.1-5.1-0.2c0.4,2.3,0.7,5.3,0.8,9
		C478.3,110.9,480.3,110.8,482.4,110.7z"/>
	<path class="st11" d="M531.2,142.5c4.5-0.1,6.8,0.2,6.9,1c0.2,0.8,0.4,2.3,0.6,4.5c0.2,2.2,0.3,4.4,0.2,6.7
		c-0.1,2.3-0.4,3.5-0.9,3.8c-0.7,0.3-2.6,0.3-5.7-0.2c-3.1-0.4-5.1-0.6-6-0.5c-1.9,0-5-0.1-9.5-0.5c-4.5-0.3-6.9-0.6-7.2-0.8
		c-0.6-0.6-0.9-2.3-0.9-5.2s0.2-4.8,0.7-5.8c0.4-0.8,2.4-1.4,5.9-1.8c0.3-4.5,0.6-8.8,0.7-12.9c0.1-4.1,0.2-8.7,0.3-13.8
		c0.1-5.1,0.3-10,0.6-14.7c-4.7-0.5-7.2-0.8-7.3-1c-0.6-0.5-0.9-2.2-1-5.2c-0.1-2.9,0.1-4.9,0.5-6c1.1-1,4.1-1.7,8.8-2
		c4.7-0.3,9.4-0.2,14.1,0.2s7.5,1.3,8.5,2.4c0.1,1.5-0.2,4.3-0.8,8.3s-1.2,6.1-2,6.3c-0.1,0.2-0.6,0.2-1.4,0
		c-0.8-0.2-1.4-0.3-1.9-0.4c-0.5-0.1-1.2-0.3-2.1-0.5c-0.9-0.2-1.5-0.4-1.8-0.5C530.8,111.2,531,124.1,531.2,142.5z"/>
</g>
<rect x="443.1" y="167.3" class="st9" width="119.6" height="74.1"/>
<g class="st10">
	<path class="st11" d="M491.1,235.9c-1.1-1.2-3-4.2-5.6-9c-2.6-4.8-4.2-7.6-4.9-8.5c-3.6-5.5-6.4-10.9-8.5-16.2
		c-0.7,0.3-1.6,0.6-2.7,1c0.2,5.1,0.8,12,1.7,20.7c0,0.3,0,1.1,0.2,2.4c0.1,1.3,0.2,2.2,0.2,2.9c0,0.6,0,1.4-0.2,2.3
		c-0.1,0.9-0.4,1.7-0.7,2.4c-0.5,0.2-1.5,0.4-3,0.5c-1.5,0.2-3.1,0.3-4.8,0.3c-1.7,0-3.3-0.1-4.7-0.5c-1.4-0.4-2.2-1-2.5-1.8
		c-0.4-3.4-0.7-11.6-1-24.7c-1.5,0.3-2.5,0.6-3,0.7c-0.5,0.1-1.3,0.2-2.3,0.3c-1,0.1-1.6,0.1-1.8,0.2c-0.2,0.1-0.6,0-1.2-0.3
		c-0.6-0.3-0.9-0.4-0.9-0.5c0,0-0.2-0.4-0.5-1.1c-0.4-0.7-0.5-1.2-0.5-1.4c0-0.2-0.2-1-0.5-2.2s-0.5-2.1-0.6-2.6
		c-0.3-1.3-0.4-2.5-0.4-3.5c0-1,0.2-1.7,0.5-2.3c0.3-0.6,0.6-1,1-1.4c0.4-0.4,1-0.6,1.8-0.8c0.8-0.2,1.6-0.4,2.4-0.5
		c0.7-0.1,1.7-0.2,3-0.5c1.2-0.2,2.3-0.4,3.3-0.7c0.1-1.9,0.2-4.6,0.5-8c0.3-3.4,0.5-6.5,0.8-9.2c0.3-2.7,0.5-4.1,0.6-4.1
		c0.7-1.3,2.4-1.8,5.3-1.7c2.9,0.2,4.8,0.9,5.8,2c0.8,0.5,1.2,6.2,1.3,17c2.2-0.7,4.4-1.6,6.5-2.6s4.2-2.2,6.3-3.6
		c2.1-1.4,3.9-3.1,5.4-5c1.5-1.9,2.4-3.9,2.9-6c6.5-2.7,10.2-2.1,11.2,1.8c0.8,3.3-0.3,7.4-3.4,12.3c-0.7,1.1-1.4,2.1-2.2,3
		c-2.8,3.4-6.5,6.4-11.1,9c1.3,2.8,3.4,6.3,6.3,10.6c2.9,4.2,5.7,8.3,8.2,12.1c2.6,3.9,4.2,7.1,5,9.6c-1.1,1.3-3.3,3.1-6.6,5.3
		C494.4,236.2,492.2,236.8,491.1,235.9z"/>
	<path class="st11" d="M507.3,182.7c-0.7-0.5-1.2-1.8-1.5-3.7c-0.3-1.9-0.2-3.8,0.3-5.6s1.5-2.7,2.8-2.8c0.7-0.7,1.8-1.1,3.5-1.3
		c1.7-0.2,3.2-0.1,4.6,0.2c3.9-0.3,8-0.6,12.1-0.7c0.7,0,2.2-0.1,4.5-0.2c2.3-0.1,4.4-0.2,6.5-0.3c2-0.1,4.2-0.1,6.3-0.1
		c2.2,0,4,0,5.4,0.2c1.4,0.2,2.1,0.4,2.1,0.8c0.1,0.5,0.3,1.3,0.5,2.3c0.2,1,0.3,2.2,0.4,3.8c0.1,1.5,0.1,2.9,0.1,4.2
		c0,1.3-0.2,2.4-0.6,3.3c-0.4,0.9-0.9,1.4-1.7,1.5c0.2,3.6,0.5,8.9,0.8,15.8c0.3,6.9,0.7,13.4,1,19.4c0,0.7,0.1,2.5,0.4,5.2
		c0.2,2.7,0.3,5,0.1,6.8c-0.2,1.8-0.6,3-1.5,3.5c-0.7,0.5-3.8,0.5-9.1,0.2c-5.4-0.4-8.5-0.5-9.4-0.5c-3.4,0.1-8.4,0-14.9-0.3
		c-0.9,0-2.5,0.3-4.7,0.8c-2.2,0.6-3.8,0.8-4.8,0.7c-2-0.3-3.2-1.8-3.6-4.5c-0.4-2.7-0.4-6.2,0.1-10.4c0.5-4.2,0.7-6.6,0.6-7.2
		c0.2-3.5,0.3-8.9,0.3-16.3c0-7.4,0-12.3,0.1-14.7C507.7,182.7,507.4,182.7,507.3,182.7z M534.4,183.5c-2.4,0.1-6.6,0-12.5-0.1
		c0.7,10.8,1.1,23.1,1.2,36.8c1.7-0.1,3.4-0.1,5.2-0.2c1.8-0.1,3.4-0.1,4.9-0.2c1.5-0.1,3.4-0.2,5.6-0.3c0.1-4.1,0.1-9.8,0-17
		c-0.1-7.2-0.1-13.5,0-18.8C537,183.5,535.5,183.5,534.4,183.5z"/>
</g>
<g class="st10">
	<path class="st11" d="M601.8,80.6c2.4-0.7,4.7-1,6.7-1c5.6,0,12.2,2.8,19.9,8.4l8.4,6l-3.3,5.8c-4,6.8-7.8,11-11.4,12.6
		c-0.2,0.1-0.5,0.2-0.9,0.2c-0.9,0-2.6-1.3-5.1-4c-3.4-3.3-6.5-5-9.3-5c-3.4,0-7.2,2.1-11.3,6.4l-1.7,1.6l1.7,6.6
		c0.7,2.8,1,4.9,1,6.2c0,1.1-0.2,1.9-0.7,2.6c-0.5,0.8-0.8,1.5-0.8,2.2c0,0.7,0.3,2.2,1,4.6c1.1,3.6,2.5,6.5,4.1,8.7
		c1.6,2.2,4.8,5.6,9.8,10.1c9.4,8.7,16,16.1,19.7,22.5c3.7,6.3,5.5,13.4,5.5,21.3c0,2.3,0,4-0.1,5.2c-0.7,9.6-4.2,17.5-10.4,23.9
		c-6.2,6.3-13.7,9.5-22.4,9.5c-0.3,0-0.7,0-1.2-0.1c-0.5-0.1-0.9-0.1-1.2-0.1c-4.4-0.3-8-1.5-10.9-3.8c-2-1.5-4.6-4.3-7.9-8.6
		c-3.2-4.3-4.9-6.9-4.9-8c0-0.7,1.9-1,5.6-1c3.2,0,4.8-0.3,4.8-0.8l-0.3-0.4c-0.4-0.5-0.3-0.7,0.5-0.6c0.3,0,1,0.1,2,0.2h1.6
		c2.1,0,4.7-0.8,7.9-2.4c4.3-2,7.5-3,9.6-3c2.2,0,4.4-0.8,6.7-2.5c2.3-1.7,3.6-3.4,4.1-5.3c0.2-0.5,0.3-1.4,0.3-2.6
		c0-2.9-1.4-6.3-4.3-10.2c-2.9-3.9-8-9.2-15.5-16c-5.1-4.7-8.9-8.9-11.4-12.8c-2.5-3.9-4.7-8.7-6.4-14.6c-2.8-8.9-4.2-18.4-4.2-28.4
		c0-5.1,0.4-10.2,1.2-15.4c0.6-4.3,1.2-7.1,1.8-8.6c0.6-1.5,1.4-2.2,2.5-2.2c0.7,0,1.8-0.9,3.4-2.8l2.2-2.6l-0.5,3.2
		c-0.2,1.6-0.1,2.6,0.1,3.1c0.3,0.5,0.7,0.2,1.3-0.7c0.7-0.9,2.5-2.3,5.5-4C597.8,82.3,600.1,81.2,601.8,80.6z"/>
</g>
<g class="st10">
	<path class="st11" d="M569.4,77.1c1.4,1.7,2,3.9,1.8,6.6c-0.2,2.7-0.8,5.3-1.8,7.9c-1,2.6-2.5,5-4.4,7.2c-1.9,2.1-3.9,3.5-6,4.1
		c-1.3-1-2.6-3.2-3.9-6.6c-1.3-3.4-2.5-5.7-3.6-6.9c1.1-0.6,2.1-1.2,2.9-1.9c0.8-0.7,1.3-1.5,1.8-2.4c0.4-0.9,0.7-1.6,0.8-2.2
		c0.2-0.6,0.4-1.5,0.5-2.8c0.2-1.2,0.4-2.1,0.6-2.8c0.7-0.5,2.5-0.7,5.2-0.7C566.2,76.6,568.2,76.8,569.4,77.1z"/>
</g>
</svg>
